<svg xmlns="http://www.w3.org/2000/svg" xmlns:xlink="http://www.w3.org/1999/xlink" width="500" zoomAndPan="magnify" viewBox="0 0 375 374.999991" height="500" preserveAspectRatio="xMidYMid meet" version="1.0"><defs><clipPath id="706e505ac8"><path d="M 245 106.179688 L 253 106.179688 L 253 259.929688 L 245 259.929688 Z M 245 106.179688 " clip-rule="nonzero"/></clipPath></defs><path fill="#000000" d="M 163.351562 134.148438 L 163.351562 232.710938 C 163.351562 234.683594 164.859375 236.195312 166.835938 236.195312 C 168.808594 236.195312 170.316406 234.683594 170.316406 232.710938 L 170.316406 134.148438 C 170.316406 132.175781 168.808594 130.664062 166.835938 130.664062 C 164.859375 130.664062 163.351562 132.175781 163.351562 134.148438 " fill-opacity="1" fill-rule="nonzero"/><path fill="#000000" d="M 122.371094 144.597656 L 122.371094 220.871094 C 122.371094 222.84375 123.878906 224.351562 125.851562 224.351562 C 127.828125 224.351562 129.335938 222.84375 129.335938 220.871094 L 129.335938 144.597656 C 129.335938 142.621094 127.828125 141.113281 125.851562 141.113281 C 123.878906 141.113281 122.371094 142.621094 122.371094 144.597656 " fill-opacity="1" fill-rule="nonzero"/><path fill="#000000" d="M 40.523438 144.597656 L 40.523438 220.871094 C 40.523438 222.84375 42.035156 224.351562 44.007812 224.351562 C 45.980469 224.351562 47.492188 222.84375 47.492188 220.871094 L 47.492188 144.597656 C 47.492188 142.621094 45.980469 141.113281 44.007812 141.113281 C 42.035156 141.113281 40.523438 142.621094 40.523438 144.597656 " fill-opacity="1" fill-rule="nonzero"/><path fill="#000000" d="M -0.457031 160.847656 L -0.457031 205.3125 C -0.457031 207.285156 1.054688 208.796875 3.027344 208.796875 C 5 208.796875 6.507812 207.285156 6.507812 205.3125 L 6.507812 160.847656 C 6.507812 158.875 5 157.367188 3.027344 157.367188 C 1.054688 157.367188 -0.457031 158.875 -0.457031 160.847656 " fill-opacity="1" fill-rule="nonzero"/><path fill="#000000" d="M 81.390625 131.824219 L 81.390625 233.640625 C 81.390625 235.613281 82.898438 237.121094 84.871094 237.121094 C 86.847656 237.121094 88.355469 235.613281 88.355469 233.640625 L 88.355469 131.824219 C 88.355469 129.851562 86.847656 128.34375 84.871094 128.34375 C 83.015625 128.34375 81.390625 129.851562 81.390625 131.824219 " fill-opacity="1" fill-rule="nonzero"/><path fill="#000000" d="M 204.214844 134.148438 L 204.214844 232.710938 C 204.214844 234.683594 205.726562 236.195312 207.699219 236.195312 C 209.671875 236.195312 211.179688 234.683594 211.179688 232.710938 L 211.179688 134.148438 C 211.179688 132.175781 209.671875 130.664062 207.699219 130.664062 C 205.839844 130.664062 204.214844 132.175781 204.214844 134.148438 " fill-opacity="1" fill-rule="nonzero"/><g clip-path="url(#706e505ac8)"><path fill="#000000" d="M 245.195312 109.769531 L 245.195312 256.046875 C 245.195312 258.019531 246.707031 259.527344 248.679688 259.527344 C 250.652344 259.527344 252.164062 258.019531 252.164062 256.046875 L 252.164062 109.769531 C 252.164062 107.792969 250.652344 106.285156 248.679688 106.285156 C 246.707031 106.285156 245.195312 107.792969 245.195312 109.769531 " fill-opacity="1" fill-rule="nonzero"/></g><path fill="#000000" d="M 286.0625 126.019531 L 286.0625 240.488281 C 286.0625 242.460938 287.570312 243.972656 289.542969 243.972656 C 291.519531 243.972656 293.027344 242.460938 293.027344 240.488281 L 293.027344 126.019531 C 293.027344 124.046875 291.519531 122.539062 289.542969 122.539062 C 287.6875 122.539062 286.0625 124.046875 286.0625 126.019531 " fill-opacity="1" fill-rule="nonzero"/><path fill="#000000" d="M 327.042969 144.597656 L 327.042969 220.871094 C 327.042969 222.84375 328.550781 224.351562 330.527344 224.351562 C 332.5 224.351562 334.007812 222.84375 334.007812 220.871094 L 334.007812 144.597656 C 334.007812 142.621094 332.5 141.113281 330.527344 141.113281 C 328.667969 141.113281 327.042969 142.621094 327.042969 144.597656 " fill-opacity="1" fill-rule="nonzero"/><path fill="#000000" d="M 368.023438 164.332031 L 368.023438 202.527344 C 368.023438 204.5 369.53125 206.007812 371.507812 206.007812 C 373.480469 206.007812 374.988281 204.5 374.988281 202.527344 L 374.988281 164.332031 C 374.988281 162.359375 373.480469 160.847656 371.507812 160.847656 C 369.53125 160.847656 368.023438 162.359375 368.023438 164.332031 " fill-opacity="1" fill-rule="nonzero"/></svg>