<svg xmlns="http://www.w3.org/2000/svg" xmlns:xlink="http://www.w3.org/1999/xlink" width="500" zoomAndPan="magnify" viewBox="0 0 375 374.999991" height="500" preserveAspectRatio="xMidYMid meet" version="1.0"><defs><clipPath id="8fa99c1907"><path d="M 0 41.667969 L 375 41.667969 L 375 313.917969 L 0 313.917969 Z M 0 41.667969 " clip-rule="nonzero"/></clipPath></defs><g clip-path="url(#8fa99c1907)"><path fill="#3a3e3b" d="M 15.667969 313.84375 L 359.332031 313.84375 C 360.332031 313.84375 361.328125 313.746094 362.3125 313.546875 C 363.292969 313.351562 364.25 313.0625 365.175781 312.679688 C 366.101562 312.292969 366.984375 311.824219 367.816406 311.265625 C 368.652344 310.707031 369.421875 310.074219 370.132812 309.363281 C 370.839844 308.652344 371.472656 307.878906 372.03125 307.042969 C 372.589844 306.210938 373.058594 305.328125 373.441406 304.402344 C 373.824219 303.472656 374.117188 302.515625 374.3125 301.53125 C 374.507812 300.546875 374.605469 299.550781 374.605469 298.546875 L 374.605469 277.210938 C 374.605469 276.207031 374.507812 275.210938 374.3125 274.226562 C 374.117188 273.242188 373.824219 272.285156 373.441406 271.359375 C 373.058594 270.429688 372.589844 269.546875 372.03125 268.714844 C 371.472656 267.878906 370.839844 267.105469 370.132812 266.394531 C 369.421875 265.6875 368.652344 265.050781 367.816406 264.492188 C 366.984375 263.9375 366.101562 263.464844 365.175781 263.082031 C 364.25 262.695312 363.292969 262.40625 362.3125 262.210938 C 361.328125 262.015625 360.332031 261.917969 359.332031 261.917969 L 353.984375 261.917969 L 353.984375 68.511719 C 353.984375 67.636719 353.941406 66.761719 353.855469 65.886719 C 353.769531 65.015625 353.640625 64.148438 353.472656 63.289062 C 353.300781 62.429688 353.089844 61.582031 352.835938 60.742188 C 352.582031 59.902344 352.285156 59.078125 351.949219 58.269531 C 351.617188 57.457031 351.242188 56.667969 350.828125 55.894531 C 350.417969 55.121094 349.96875 54.371094 349.480469 53.640625 C 348.996094 52.914062 348.472656 52.207031 347.917969 51.53125 C 347.363281 50.855469 346.777344 50.203125 346.15625 49.585938 C 345.539062 48.964844 344.890625 48.378906 344.210938 47.820312 C 343.535156 47.265625 342.832031 46.742188 342.105469 46.257812 C 341.378906 45.769531 340.628906 45.320312 339.855469 44.90625 C 339.085938 44.492188 338.292969 44.117188 337.484375 43.78125 C 336.675781 43.449219 335.851562 43.152344 335.015625 42.898438 C 334.175781 42.644531 333.328125 42.429688 332.46875 42.257812 C 331.613281 42.089844 330.746094 41.960938 329.875 41.875 C 329.003906 41.789062 328.132812 41.746094 327.257812 41.746094 L 47.742188 41.746094 C 46.867188 41.746094 45.996094 41.789062 45.125 41.875 C 44.253906 41.960938 43.386719 42.089844 42.53125 42.257812 C 41.671875 42.429688 40.824219 42.644531 39.984375 42.898438 C 39.148438 43.152344 38.324219 43.449219 37.515625 43.78125 C 36.707031 44.117188 35.914062 44.492188 35.144531 44.90625 C 34.371094 45.320312 33.621094 45.769531 32.894531 46.257812 C 32.167969 46.742188 31.464844 47.265625 30.789062 47.820312 C 30.109375 48.378906 29.460938 48.964844 28.84375 49.585938 C 28.222656 50.203125 27.636719 50.855469 27.082031 51.53125 C 26.527344 52.207031 26.003906 52.914062 25.519531 53.640625 C 25.03125 54.371094 24.582031 55.121094 24.171875 55.894531 C 23.757812 56.667969 23.382812 57.457031 23.050781 58.269531 C 22.714844 59.078125 22.417969 59.902344 22.164062 60.742188 C 21.910156 61.582031 21.699219 62.429688 21.527344 63.289062 C 21.359375 64.148438 21.230469 65.015625 21.144531 65.886719 C 21.058594 66.761719 21.015625 67.636719 21.015625 68.511719 L 21.015625 261.917969 L 15.667969 261.917969 C 14.664062 261.917969 13.671875 262.015625 12.6875 262.210938 C 11.707031 262.40625 10.75 262.695312 9.824219 263.082031 C 8.898438 263.464844 8.015625 263.9375 7.183594 264.492188 C 6.347656 265.050781 5.578125 265.6875 4.867188 266.394531 C 4.160156 267.105469 3.527344 267.878906 2.96875 268.714844 C 2.410156 269.546875 1.941406 270.429688 1.558594 271.359375 C 1.175781 272.285156 0.882812 273.242188 0.6875 274.226562 C 0.492188 275.210938 0.394531 276.207031 0.394531 277.210938 L 0.394531 298.472656 C 0.390625 299.480469 0.484375 300.476562 0.675781 301.464844 C 0.867188 302.453125 1.152344 303.414062 1.535156 304.347656 C 1.917969 305.28125 2.386719 306.164062 2.941406 307.003906 C 3.5 307.84375 4.132812 308.621094 4.839844 309.335938 C 5.550781 310.050781 6.324219 310.6875 7.160156 311.25 C 7.996094 311.808594 8.878906 312.285156 9.804688 312.671875 C 10.734375 313.058594 11.691406 313.347656 12.679688 313.546875 C 13.667969 313.742188 14.664062 313.84375 15.667969 313.84375 Z M 28.652344 68.511719 C 28.652344 67.886719 28.683594 67.261719 28.742188 66.636719 C 28.804688 66.015625 28.898438 65.394531 29.019531 64.78125 C 29.140625 64.167969 29.292969 63.5625 29.472656 62.960938 C 29.65625 62.363281 29.867188 61.773438 30.105469 61.195312 C 30.34375 60.617188 30.609375 60.050781 30.90625 59.5 C 31.199219 58.945312 31.523438 58.410156 31.871094 57.890625 C 32.214844 57.367188 32.589844 56.867188 32.984375 56.382812 C 33.382812 55.898438 33.800781 55.433594 34.242188 54.992188 C 34.6875 54.550781 35.148438 54.128906 35.632812 53.734375 C 36.117188 53.335938 36.617188 52.960938 37.136719 52.613281 C 37.65625 52.265625 38.191406 51.945312 38.742188 51.648438 C 39.296875 51.355469 39.859375 51.085938 40.4375 50.847656 C 41.015625 50.609375 41.601562 50.398438 42.203125 50.214844 C 42.800781 50.035156 43.40625 49.882812 44.019531 49.761719 C 44.632812 49.636719 45.25 49.546875 45.871094 49.484375 C 46.496094 49.421875 47.117188 49.394531 47.742188 49.394531 L 327.257812 49.394531 C 327.882812 49.394531 328.503906 49.421875 329.128906 49.484375 C 329.75 49.546875 330.367188 49.636719 330.980469 49.761719 C 331.59375 49.882812 332.199219 50.035156 332.796875 50.214844 C 333.398438 50.398438 333.984375 50.609375 334.5625 50.847656 C 335.140625 51.085938 335.703125 51.355469 336.257812 51.648438 C 336.808594 51.945312 337.34375 52.265625 337.863281 52.613281 C 338.382812 52.960938 338.882812 53.335938 339.367188 53.734375 C 339.851562 54.128906 340.3125 54.550781 340.757812 54.992188 C 341.199219 55.433594 341.617188 55.898438 342.015625 56.382812 C 342.410156 56.867188 342.785156 57.367188 343.128906 57.890625 C 343.476562 58.410156 343.800781 58.945312 344.09375 59.5 C 344.386719 60.050781 344.65625 60.617188 344.894531 61.195312 C 345.132812 61.773438 345.34375 62.363281 345.527344 62.960938 C 345.707031 63.5625 345.859375 64.167969 345.980469 64.78125 C 346.101562 65.394531 346.195312 66.015625 346.257812 66.636719 C 346.316406 67.261719 346.347656 67.886719 346.347656 68.511719 L 346.347656 261.917969 L 327.257812 261.917969 L 327.257812 72.335938 C 327.257812 71.828125 327.160156 71.339844 326.964844 70.871094 C 326.769531 70.402344 326.496094 69.988281 326.136719 69.632812 C 325.78125 69.273438 325.367188 68.996094 324.898438 68.800781 C 324.429688 68.609375 323.945312 68.511719 323.4375 68.511719 L 51.5625 68.511719 C 51.054688 68.511719 50.570312 68.609375 50.101562 68.800781 C 49.632812 68.996094 49.21875 69.273438 48.863281 69.632812 C 48.503906 69.988281 48.226562 70.402344 48.035156 70.871094 C 47.839844 71.339844 47.742188 71.828125 47.742188 72.335938 L 47.742188 261.917969 L 28.652344 261.917969 Z M 129.917969 261.917969 L 55.382812 261.917969 L 55.382812 76.160156 L 319.617188 76.160156 L 319.617188 261.917969 Z M 237.445312 269.5625 L 237.445312 276.445312 C 237.445312 276.949219 237.398438 277.445312 237.300781 277.9375 C 237.199219 278.429688 237.054688 278.910156 236.863281 279.371094 C 236.671875 279.835938 236.4375 280.277344 236.160156 280.695312 C 235.878906 281.113281 235.5625 281.5 235.207031 281.855469 C 234.855469 282.207031 234.46875 282.527344 234.050781 282.804688 C 233.632812 283.082031 233.195312 283.320312 232.730469 283.511719 C 232.269531 283.703125 231.789062 283.847656 231.296875 283.945312 C 230.808594 284.042969 230.308594 284.09375 229.808594 284.09375 L 145.191406 284.09375 C 144.691406 284.09375 144.191406 284.042969 143.703125 283.945312 C 143.210938 283.847656 142.730469 283.703125 142.269531 283.511719 C 141.804688 283.320312 141.367188 283.082031 140.949219 282.804688 C 140.53125 282.527344 140.144531 282.207031 139.792969 281.855469 C 139.4375 281.5 139.121094 281.113281 138.839844 280.695312 C 138.5625 280.277344 138.328125 279.835938 138.136719 279.371094 C 137.945312 278.910156 137.800781 278.429688 137.699219 277.9375 C 137.601562 277.445312 137.554688 276.949219 137.554688 276.445312 L 137.554688 269.5625 Z M 8.03125 277.210938 C 8.03125 276.707031 8.082031 276.210938 8.179688 275.71875 C 8.277344 275.226562 8.421875 274.75 8.613281 274.285156 C 8.804688 273.820312 9.039062 273.378906 9.320312 272.960938 C 9.597656 272.542969 9.914062 272.160156 10.269531 271.804688 C 10.625 271.449219 11.007812 271.132812 11.425781 270.851562 C 11.84375 270.574219 12.28125 270.339844 12.746094 270.144531 C 13.210938 269.953125 13.6875 269.808594 14.179688 269.710938 C 14.671875 269.613281 15.167969 269.5625 15.667969 269.5625 L 129.917969 269.5625 L 129.917969 276.445312 C 129.917969 277.449219 130.015625 278.445312 130.210938 279.429688 C 130.40625 280.414062 130.695312 281.371094 131.082031 282.300781 C 131.464844 283.226562 131.933594 284.109375 132.492188 284.945312 C 133.046875 285.777344 133.683594 286.550781 134.390625 287.261719 C 135.101562 287.972656 135.871094 288.605469 136.707031 289.164062 C 137.539062 289.722656 138.417969 290.191406 139.347656 290.578125 C 140.273438 290.960938 141.226562 291.25 142.210938 291.449219 C 143.195312 291.644531 144.1875 291.742188 145.191406 291.742188 L 229.808594 291.742188 C 230.8125 291.742188 231.804688 291.644531 232.789062 291.449219 C 233.773438 291.25 234.726562 290.960938 235.652344 290.578125 C 236.582031 290.191406 237.460938 289.722656 238.292969 289.164062 C 239.128906 288.605469 239.898438 287.972656 240.609375 287.261719 C 241.316406 286.550781 241.953125 285.777344 242.507812 284.945312 C 243.066406 284.109375 243.535156 283.226562 243.917969 282.300781 C 244.304688 281.371094 244.59375 280.414062 244.789062 279.429688 C 244.984375 278.445312 245.082031 277.449219 245.082031 276.445312 L 245.082031 269.5625 L 359.332031 269.5625 C 359.832031 269.5625 360.328125 269.613281 360.820312 269.710938 C 361.3125 269.808594 361.789062 269.953125 362.253906 270.144531 C 362.71875 270.335938 363.15625 270.574219 363.574219 270.851562 C 363.992188 271.132812 364.375 271.449219 364.730469 271.804688 C 365.085938 272.160156 365.402344 272.542969 365.679688 272.960938 C 365.960938 273.378906 366.195312 273.820312 366.386719 274.285156 C 366.578125 274.75 366.722656 275.226562 366.820312 275.71875 C 366.917969 276.210938 366.96875 276.707031 366.96875 277.210938 L 366.96875 298.472656 C 366.96875 298.972656 366.917969 299.46875 366.820312 299.964844 C 366.722656 300.457031 366.578125 300.933594 366.386719 301.398438 C 366.195312 301.863281 365.960938 302.300781 365.679688 302.71875 C 365.402344 303.136719 365.085938 303.523438 364.730469 303.878906 C 364.375 304.234375 363.992188 304.550781 363.574219 304.828125 C 363.15625 305.109375 362.71875 305.34375 362.253906 305.535156 C 361.789062 305.726562 361.3125 305.875 360.820312 305.972656 C 360.328125 306.070312 359.832031 306.117188 359.332031 306.117188 L 15.667969 306.117188 C 15.167969 306.117188 14.671875 306.070312 14.179688 305.972656 C 13.6875 305.875 13.210938 305.726562 12.746094 305.535156 C 12.28125 305.34375 11.84375 305.109375 11.425781 304.828125 C 11.007812 304.550781 10.625 304.234375 10.269531 303.878906 C 9.914062 303.523438 9.597656 303.136719 9.320312 302.71875 C 9.039062 302.300781 8.804688 301.863281 8.613281 301.398438 C 8.421875 300.933594 8.277344 300.457031 8.179688 299.964844 C 8.082031 299.46875 8.03125 298.972656 8.03125 298.472656 Z M 175.089844 104.417969 C 174.570312 104.054688 173.996094 103.839844 173.367188 103.765625 C 172.738281 103.691406 172.128906 103.765625 171.539062 103.996094 L 106.625 129.078125 C 106.265625 129.21875 105.9375 129.40625 105.632812 129.644531 C 105.332031 129.882812 105.070312 130.160156 104.855469 130.480469 C 104.636719 130.796875 104.46875 131.140625 104.355469 131.507812 C 104.238281 131.875 104.183594 132.25 104.179688 132.636719 L 104.179688 198.402344 C 103.589844 197.933594 102.972656 197.496094 102.332031 197.09375 C 101.6875 196.691406 101.027344 196.328125 100.34375 196 C 99.664062 195.671875 98.964844 195.386719 98.25 195.136719 C 97.535156 194.886719 96.808594 194.679688 96.070312 194.511719 C 95.332031 194.347656 94.585938 194.222656 93.835938 194.136719 C 93.082031 194.054688 92.328125 194.015625 91.570312 194.015625 C 90.816406 194.019531 90.0625 194.0625 89.308594 194.148438 C 88.558594 194.234375 87.8125 194.363281 87.078125 194.535156 C 86.339844 194.703125 85.613281 194.914062 84.902344 195.167969 C 84.1875 195.417969 83.488281 195.710938 82.808594 196.042969 C 82.128906 196.371094 81.46875 196.738281 80.828125 197.144531 C 80.1875 197.546875 79.574219 197.988281 78.984375 198.460938 C 78.394531 198.933594 77.832031 199.441406 77.296875 199.976562 C 76.765625 200.515625 76.261719 201.082031 75.792969 201.675781 C 75.320312 202.269531 74.886719 202.886719 74.484375 203.527344 C 74.085938 204.171875 73.722656 204.835938 73.394531 205.515625 C 73.070312 206.199219 72.78125 206.902344 72.535156 207.617188 C 72.285156 208.332031 72.078125 209.058594 71.914062 209.800781 C 71.746094 210.539062 71.621094 211.285156 71.539062 212.039062 C 71.457031 212.789062 71.417969 213.546875 71.417969 214.304688 C 71.421875 215.0625 71.464844 215.816406 71.550781 216.570312 C 71.640625 217.320312 71.769531 218.066406 71.9375 218.804688 C 72.109375 219.542969 72.320312 220.269531 72.574219 220.984375 C 72.824219 221.699219 73.117188 222.394531 73.445312 223.078125 C 73.777344 223.757812 74.144531 224.417969 74.550781 225.058594 C 74.953125 225.699219 75.394531 226.316406 75.867188 226.90625 C 76.339844 227.496094 76.84375 228.058594 77.382812 228.59375 C 77.917969 229.128906 78.484375 229.628906 79.078125 230.101562 C 79.667969 230.570312 80.289062 231.007812 80.929688 231.40625 C 81.570312 231.808594 82.234375 232.171875 82.917969 232.496094 C 83.597656 232.824219 84.296875 233.113281 85.011719 233.359375 C 85.726562 233.605469 86.453125 233.8125 87.191406 233.980469 C 87.929688 234.144531 88.675781 234.269531 89.429688 234.351562 C 90.179688 234.433594 90.933594 234.472656 91.691406 234.472656 C 92.449219 234.46875 93.203125 234.421875 93.953125 234.335938 C 94.703125 234.25 95.449219 234.117188 96.1875 233.949219 C 96.921875 233.777344 97.648438 233.5625 98.359375 233.3125 C 99.074219 233.058594 99.769531 232.765625 100.453125 232.433594 C 101.132812 232.101562 101.792969 231.734375 102.429688 231.328125 C 103.070312 230.925781 103.683594 230.484375 104.273438 230.007812 C 104.863281 229.535156 105.425781 229.027344 105.957031 228.492188 C 106.492188 227.953125 106.992188 227.386719 107.460938 226.792969 C 107.929688 226.199219 108.363281 225.578125 108.765625 224.9375 C 109.164062 224.292969 109.527344 223.628906 109.851562 222.945312 C 110.179688 222.261719 110.464844 221.5625 110.710938 220.847656 C 110.957031 220.128906 111.164062 219.402344 111.332031 218.664062 C 111.496094 217.921875 111.617188 217.175781 111.699219 216.425781 C 111.78125 215.671875 111.820312 214.914062 111.816406 214.15625 L 111.816406 160.929688 L 169.09375 138.828125 L 169.09375 181.921875 C 168.503906 181.453125 167.886719 181.015625 167.242188 180.613281 C 166.601562 180.210938 165.941406 179.847656 165.257812 179.519531 C 164.574219 179.191406 163.878906 178.90625 163.164062 178.65625 C 162.449219 178.40625 161.722656 178.199219 160.984375 178.03125 C 160.246094 177.867188 159.5 177.742188 158.75 177.65625 C 157.996094 177.574219 157.242188 177.535156 156.484375 177.535156 C 155.730469 177.539062 154.976562 177.582031 154.222656 177.667969 C 153.472656 177.753906 152.726562 177.882812 151.992188 178.054688 C 151.253906 178.222656 150.527344 178.433594 149.816406 178.6875 C 149.101562 178.9375 148.402344 179.230469 147.722656 179.5625 C 147.042969 179.890625 146.382812 180.257812 145.742188 180.664062 C 145.101562 181.066406 144.488281 181.507812 143.898438 181.980469 C 143.308594 182.457031 142.746094 182.960938 142.210938 183.496094 C 141.679688 184.035156 141.175781 184.601562 140.707031 185.195312 C 140.234375 185.789062 139.800781 186.40625 139.398438 187.046875 C 139 187.691406 138.636719 188.355469 138.308594 189.039062 C 137.984375 189.722656 137.695312 190.421875 137.449219 191.136719 C 137.199219 191.851562 136.992188 192.578125 136.828125 193.320312 C 136.660156 194.058594 136.535156 194.804688 136.453125 195.558594 C 136.371094 196.308594 136.332031 197.066406 136.332031 197.824219 C 136.335938 198.582031 136.378906 199.335938 136.464844 200.089844 C 136.554688 200.839844 136.683594 201.585938 136.851562 202.324219 C 137.023438 203.0625 137.234375 203.789062 137.488281 204.503906 C 137.738281 205.21875 138.03125 205.914062 138.359375 206.597656 C 138.691406 207.277344 139.058594 207.9375 139.464844 208.578125 C 139.867188 209.21875 140.308594 209.835938 140.78125 210.425781 C 141.253906 211.015625 141.757812 211.578125 142.296875 212.113281 C 142.832031 212.648438 143.398438 213.148438 143.992188 213.621094 C 144.582031 214.089844 145.199219 214.527344 145.84375 214.925781 C 146.484375 215.328125 147.148438 215.691406 147.832031 216.019531 C 148.511719 216.34375 149.210938 216.632812 149.925781 216.878906 C 150.640625 217.125 151.367188 217.332031 152.105469 217.5 C 152.84375 217.664062 153.589844 217.789062 154.34375 217.871094 C 155.09375 217.953125 155.847656 217.992188 156.605469 217.992188 C 157.363281 217.988281 158.117188 217.941406 158.867188 217.855469 C 159.617188 217.769531 160.363281 217.636719 161.101562 217.46875 C 161.835938 217.296875 162.5625 217.082031 163.273438 216.832031 C 163.988281 216.578125 164.683594 216.285156 165.367188 215.953125 C 166.046875 215.625 166.707031 215.253906 167.34375 214.847656 C 167.984375 214.445312 168.597656 214.003906 169.1875 213.527344 C 169.777344 213.054688 170.339844 212.546875 170.871094 212.011719 C 171.40625 211.472656 171.90625 210.90625 172.375 210.3125 C 172.84375 209.71875 173.277344 209.097656 173.679688 208.457031 C 174.078125 207.8125 174.441406 207.148438 174.765625 206.464844 C 175.09375 205.78125 175.378906 205.082031 175.625 204.367188 C 175.871094 203.648438 176.078125 202.921875 176.246094 202.183594 C 176.410156 201.441406 176.53125 200.695312 176.613281 199.945312 C 176.695312 199.191406 176.734375 198.433594 176.730469 197.675781 L 176.730469 107.550781 C 176.730469 106.925781 176.585938 106.335938 176.296875 105.78125 C 176.003906 105.226562 175.601562 104.773438 175.089844 104.417969 Z M 91.578125 226.777344 C 90.75 226.777344 89.929688 226.695312 89.113281 226.53125 C 88.300781 226.371094 87.511719 226.128906 86.742188 225.8125 C 85.976562 225.496094 85.25 225.105469 84.558594 224.644531 C 83.867188 224.179688 83.230469 223.65625 82.644531 223.070312 C 82.054688 222.480469 81.53125 221.84375 81.070312 221.152344 C 80.609375 220.460938 80.21875 219.730469 79.902344 218.960938 C 79.585938 218.195312 79.34375 217.402344 79.183594 216.589844 C 79.023438 215.773438 78.941406 214.949219 78.941406 214.121094 C 78.941406 213.289062 79.023438 212.464844 79.183594 211.648438 C 79.34375 210.835938 79.585938 210.042969 79.902344 209.277344 C 80.21875 208.507812 80.609375 207.777344 81.070312 207.085938 C 81.53125 206.398438 82.054688 205.757812 82.644531 205.167969 C 83.230469 204.582031 83.867188 204.058594 84.558594 203.597656 C 85.25 203.132812 85.976562 202.746094 86.742188 202.425781 C 87.511719 202.109375 88.300781 201.867188 89.113281 201.707031 C 89.929688 201.542969 90.75 201.460938 91.578125 201.460938 C 92.410156 201.460938 93.230469 201.542969 94.046875 201.707031 C 94.859375 201.867188 95.648438 202.109375 96.417969 202.425781 C 97.183594 202.746094 97.910156 203.132812 98.601562 203.597656 C 99.292969 204.058594 99.929688 204.582031 100.515625 205.167969 C 101.105469 205.757812 101.628906 206.398438 102.089844 207.085938 C 102.550781 207.777344 102.941406 208.507812 103.257812 209.277344 C 103.574219 210.042969 103.8125 210.835938 103.976562 211.648438 C 104.136719 212.464844 104.21875 213.289062 104.21875 214.121094 C 104.21875 214.953125 104.136719 215.773438 103.976562 216.589844 C 103.816406 217.40625 103.574219 218.199219 103.257812 218.96875 C 102.941406 219.738281 102.550781 220.46875 102.089844 221.160156 C 101.628906 221.851562 101.105469 222.492188 100.519531 223.082031 C 99.933594 223.671875 99.292969 224.199219 98.605469 224.660156 C 97.914062 225.125 97.1875 225.515625 96.417969 225.835938 C 95.652344 226.15625 94.863281 226.398438 94.046875 226.5625 C 93.234375 226.726562 92.410156 226.8125 91.578125 226.8125 Z M 156.492188 210.296875 C 155.664062 210.296875 154.839844 210.21875 154.027344 210.058594 C 153.210938 209.898438 152.417969 209.660156 151.652344 209.34375 C 150.882812 209.03125 150.152344 208.640625 149.460938 208.179688 C 148.769531 207.722656 148.128906 207.199219 147.542969 206.609375 C 146.953125 206.023438 146.425781 205.386719 145.964844 204.695312 C 145.5 204.003906 145.109375 203.277344 144.789062 202.507812 C 144.46875 201.742188 144.230469 200.949219 144.066406 200.136719 C 143.902344 199.320312 143.820312 198.496094 143.816406 197.664062 C 143.816406 196.832031 143.894531 196.007812 144.054688 195.195312 C 144.214844 194.378906 144.453125 193.585938 144.769531 192.816406 C 145.085938 192.046875 145.476562 191.316406 145.933594 190.625 C 146.394531 189.933594 146.917969 189.292969 147.503906 188.703125 C 148.089844 188.113281 148.730469 187.589844 149.417969 187.125 C 150.109375 186.664062 150.835938 186.269531 151.605469 185.953125 C 152.371094 185.632812 153.160156 185.390625 153.976562 185.230469 C 154.789062 185.066406 155.613281 184.984375 156.441406 184.984375 C 157.273438 184.980469 158.097656 185.0625 158.910156 185.222656 C 159.726562 185.386719 160.515625 185.625 161.285156 185.941406 C 162.050781 186.261719 162.78125 186.648438 163.472656 187.109375 C 164.160156 187.574219 164.800781 188.097656 165.386719 188.683594 C 165.976562 189.273438 166.5 189.914062 166.960938 190.605469 C 167.425781 191.292969 167.8125 192.023438 168.132812 192.792969 C 168.449219 193.5625 168.691406 194.351562 168.851562 195.167969 C 169.015625 195.984375 169.09375 196.808594 169.09375 197.640625 C 169.097656 198.46875 169.019531 199.292969 168.859375 200.109375 C 168.699219 200.925781 168.460938 201.714844 168.148438 202.484375 C 167.832031 203.253906 167.445312 203.984375 166.984375 204.675781 C 166.527344 205.371094 166.003906 206.011719 165.421875 206.601562 C 164.835938 207.1875 164.199219 207.714844 163.507812 208.179688 C 162.820312 208.644531 162.09375 209.035156 161.328125 209.355469 C 160.5625 209.675781 159.773438 209.917969 158.960938 210.082031 C 158.144531 210.246094 157.324219 210.332031 156.492188 210.332031 Z M 169.09375 130.609375 L 111.816406 152.710938 L 111.816406 135.234375 L 169.09375 113.132812 Z M 197.007812 163.953125 L 197.007812 130.570312 C 197.007812 130.0625 197.105469 129.574219 197.296875 129.109375 C 197.492188 128.640625 197.769531 128.226562 198.125 127.867188 C 198.484375 127.507812 198.898438 127.230469 199.363281 127.039062 C 199.832031 126.84375 200.320312 126.746094 200.828125 126.746094 C 201.332031 126.746094 201.820312 126.84375 202.289062 127.039062 C 202.753906 127.230469 203.167969 127.507812 203.527344 127.867188 C 203.882812 128.226562 204.160156 128.640625 204.355469 129.109375 C 204.546875 129.574219 204.644531 130.0625 204.644531 130.570312 L 204.644531 163.988281 C 204.644531 164.496094 204.546875 164.984375 204.355469 165.453125 C 204.160156 165.921875 203.882812 166.335938 203.527344 166.695312 C 203.167969 167.050781 202.753906 167.328125 202.289062 167.523438 C 201.820312 167.71875 201.332031 167.8125 200.828125 167.8125 C 200.320312 167.8125 199.832031 167.71875 199.363281 167.523438 C 198.898438 167.328125 198.484375 167.050781 198.125 166.695312 C 197.769531 166.335938 197.492188 165.921875 197.296875 165.453125 C 197.105469 164.984375 197.007812 164.496094 197.007812 163.988281 Z M 220.796875 163.953125 L 220.796875 114.242188 C 220.796875 113.738281 220.894531 113.25 221.085938 112.78125 C 221.28125 112.3125 221.558594 111.898438 221.914062 111.539062 C 222.273438 111.179688 222.6875 110.90625 223.152344 110.710938 C 223.621094 110.515625 224.109375 110.417969 224.617188 110.417969 C 225.121094 110.417969 225.609375 110.515625 226.078125 110.710938 C 226.542969 110.90625 226.957031 111.179688 227.316406 111.539062 C 227.671875 111.898438 227.949219 112.3125 228.144531 112.78125 C 228.335938 113.25 228.433594 113.738281 228.433594 114.242188 L 228.433594 163.953125 C 228.433594 164.460938 228.335938 164.945312 228.144531 165.414062 C 227.949219 165.882812 227.671875 166.296875 227.316406 166.65625 C 226.957031 167.015625 226.542969 167.289062 226.078125 167.484375 C 225.609375 167.679688 225.121094 167.777344 224.617188 167.777344 C 224.109375 167.777344 223.621094 167.679688 223.152344 167.484375 C 222.6875 167.289062 222.273438 167.015625 221.914062 166.65625 C 221.558594 166.296875 221.28125 165.882812 221.085938 165.414062 C 220.894531 164.945312 220.796875 164.460938 220.796875 163.953125 Z M 244.625 163.953125 L 244.625 140.015625 C 244.625 139.507812 244.722656 139.019531 244.914062 138.550781 C 245.109375 138.082031 245.382812 137.671875 245.742188 137.3125 C 246.101562 136.953125 246.511719 136.675781 246.980469 136.484375 C 247.449219 136.289062 247.9375 136.191406 248.441406 136.191406 C 248.949219 136.191406 249.4375 136.289062 249.902344 136.484375 C 250.371094 136.675781 250.785156 136.953125 251.144531 137.3125 C 251.5 137.671875 251.777344 138.082031 251.96875 138.550781 C 252.164062 139.019531 252.261719 139.507812 252.261719 140.015625 L 252.261719 163.988281 C 252.261719 164.496094 252.164062 164.984375 251.96875 165.453125 C 251.777344 165.921875 251.5 166.335938 251.144531 166.695312 C 250.785156 167.050781 250.371094 167.328125 249.902344 167.523438 C 249.4375 167.71875 248.949219 167.8125 248.441406 167.8125 C 247.9375 167.8125 247.449219 167.71875 246.980469 167.523438 C 246.511719 167.328125 246.101562 167.050781 245.742188 166.695312 C 245.382812 166.335938 245.109375 165.921875 244.914062 165.453125 C 244.722656 164.984375 244.625 164.496094 244.625 163.988281 Z M 268.414062 163.953125 L 268.414062 101.894531 C 268.414062 101.386719 268.511719 100.898438 268.703125 100.429688 C 268.898438 99.960938 269.171875 99.546875 269.53125 99.1875 C 269.890625 98.832031 270.300781 98.554688 270.769531 98.359375 C 271.238281 98.167969 271.726562 98.070312 272.230469 98.070312 C 272.738281 98.070312 273.226562 98.167969 273.691406 98.359375 C 274.160156 98.554688 274.574219 98.832031 274.933594 99.1875 C 275.289062 99.546875 275.566406 99.960938 275.757812 100.429688 C 275.953125 100.898438 276.050781 101.386719 276.050781 101.894531 L 276.050781 163.988281 C 276.050781 164.496094 275.953125 164.984375 275.757812 165.453125 C 275.566406 165.921875 275.289062 166.335938 274.933594 166.695312 C 274.574219 167.050781 274.160156 167.328125 273.691406 167.523438 C 273.226562 167.71875 272.738281 167.8125 272.230469 167.8125 C 271.726562 167.8125 271.238281 167.71875 270.769531 167.523438 C 270.300781 167.328125 269.890625 167.050781 269.53125 166.695312 C 269.171875 166.335938 268.898438 165.921875 268.703125 165.453125 C 268.511719 164.984375 268.414062 164.496094 268.414062 163.988281 Z M 292.242188 163.953125 L 292.242188 143.378906 C 292.242188 142.875 292.335938 142.386719 292.53125 141.917969 C 292.726562 141.449219 293 141.035156 293.359375 140.675781 C 293.71875 140.316406 294.128906 140.042969 294.597656 139.847656 C 295.066406 139.652344 295.550781 139.554688 296.058594 139.554688 C 296.566406 139.554688 297.050781 139.652344 297.519531 139.847656 C 297.988281 140.042969 298.402344 140.316406 298.757812 140.675781 C 299.117188 141.035156 299.394531 141.449219 299.585938 141.917969 C 299.78125 142.386719 299.878906 142.875 299.878906 143.378906 L 299.878906 163.914062 C 299.878906 164.421875 299.78125 164.910156 299.585938 165.378906 C 299.394531 165.84375 299.117188 166.257812 298.757812 166.617188 C 298.402344 166.976562 297.988281 167.253906 297.519531 167.445312 C 297.050781 167.640625 296.566406 167.738281 296.058594 167.738281 C 295.550781 167.738281 295.066406 167.640625 294.597656 167.445312 C 294.128906 167.253906 293.71875 166.976562 293.359375 166.617188 C 293 166.257812 292.726562 165.84375 292.53125 165.378906 C 292.335938 164.910156 292.242188 164.421875 292.242188 163.914062 Z M 197.007812 201.769531 C 197.007812 201.261719 197.105469 200.773438 197.296875 200.304688 C 197.492188 199.835938 197.769531 199.421875 198.125 199.066406 C 198.484375 198.707031 198.898438 198.429688 199.363281 198.234375 C 199.832031 198.042969 200.320312 197.945312 200.828125 197.945312 L 296.058594 197.945312 C 296.566406 197.945312 297.050781 198.042969 297.519531 198.234375 C 297.988281 198.429688 298.402344 198.707031 298.757812 199.066406 C 299.117188 199.421875 299.394531 199.835938 299.585938 200.304688 C 299.78125 200.773438 299.878906 201.261719 299.878906 201.769531 C 299.878906 202.277344 299.78125 202.761719 299.585938 203.230469 C 299.394531 203.699219 299.117188 204.113281 298.757812 204.472656 C 298.402344 204.832031 297.988281 205.105469 297.519531 205.300781 C 297.050781 205.496094 296.566406 205.59375 296.058594 205.59375 L 200.828125 205.59375 C 200.320312 205.59375 199.832031 205.496094 199.363281 205.300781 C 198.898438 205.105469 198.484375 204.832031 198.125 204.472656 C 197.769531 204.113281 197.492188 203.699219 197.296875 203.230469 C 197.105469 202.761719 197.007812 202.277344 197.007812 201.769531 Z M 299.878906 230.5625 C 299.878906 231.070312 299.78125 231.554688 299.585938 232.023438 C 299.394531 232.492188 299.117188 232.90625 298.757812 233.265625 C 298.402344 233.625 297.988281 233.898438 297.519531 234.09375 C 297.050781 234.289062 296.566406 234.386719 296.058594 234.386719 L 280.210938 234.386719 C 279.707031 234.386719 279.21875 234.289062 278.75 234.09375 C 278.285156 233.898438 277.871094 233.625 277.511719 233.265625 C 277.152344 232.90625 276.878906 232.492188 276.683594 232.023438 C 276.492188 231.554688 276.394531 231.070312 276.394531 230.5625 C 276.394531 230.054688 276.492188 229.566406 276.683594 229.097656 C 276.878906 228.628906 277.152344 228.214844 277.511719 227.859375 C 277.871094 227.5 278.285156 227.222656 278.75 227.027344 C 279.21875 226.835938 279.707031 226.738281 280.210938 226.738281 L 296.058594 226.738281 C 296.566406 226.738281 297.050781 226.835938 297.519531 227.027344 C 297.988281 227.222656 298.402344 227.5 298.757812 227.859375 C 299.117188 228.214844 299.394531 228.628906 299.585938 229.097656 C 299.78125 229.566406 299.878906 230.054688 299.878906 230.5625 Z M 264.402344 234.386719 L 200.828125 234.386719 C 200.320312 234.386719 199.832031 234.289062 199.363281 234.09375 C 198.898438 233.898438 198.484375 233.625 198.125 233.265625 C 197.769531 232.90625 197.492188 232.492188 197.296875 232.023438 C 197.105469 231.554688 197.007812 231.070312 197.007812 230.5625 C 197.007812 230.054688 197.105469 229.566406 197.296875 229.097656 C 197.492188 228.628906 197.769531 228.214844 198.125 227.859375 C 198.484375 227.5 198.898438 227.222656 199.363281 227.027344 C 199.832031 226.835938 200.320312 226.738281 200.828125 226.738281 L 264.402344 226.738281 C 264.910156 226.738281 265.398438 226.835938 265.863281 227.027344 C 266.332031 227.222656 266.746094 227.5 267.105469 227.859375 C 267.460938 228.214844 267.738281 228.628906 267.933594 229.097656 C 268.125 229.566406 268.222656 230.054688 268.222656 230.5625 C 268.222656 231.070312 268.125 231.554688 267.933594 232.023438 C 267.738281 232.492188 267.460938 232.90625 267.105469 233.265625 C 266.746094 233.625 266.332031 233.898438 265.863281 234.09375 C 265.398438 234.289062 264.910156 234.386719 264.402344 234.386719 Z M 264.402344 234.386719 " fill-opacity="1" fill-rule="nonzero"/></g></svg>