<svg xmlns="http://www.w3.org/2000/svg" xmlns:xlink="http://www.w3.org/1999/xlink" width="500" zoomAndPan="magnify" viewBox="0 0 375 374.999991" height="500" preserveAspectRatio="xMidYMid meet" version="1.0"><defs><clipPath id="feaef94a23"><path d="M 8.582031 109 L 366.332031 109 L 366.332031 372.046875 L 8.582031 372.046875 Z M 8.582031 109 " clip-rule="nonzero"/></clipPath></defs><g clip-path="url(#feaef94a23)"><path fill="#000000" d="M 360.425781 109.671875 L 315.789062 109.671875 L 315.789062 120.835938 L 354.847656 120.835938 L 354.847656 277.144531 L 20.0625 277.144531 L 20.0625 120.835938 L 59.121094 120.835938 L 59.121094 109.671875 L 14.484375 109.671875 C 14.117188 109.671875 13.753906 109.707031 13.394531 109.777344 C 13.035156 109.851562 12.6875 109.957031 12.347656 110.097656 C 12.007812 110.238281 11.6875 110.410156 11.382812 110.613281 C 11.078125 110.816406 10.796875 111.046875 10.539062 111.304688 C 10.277344 111.566406 10.046875 111.847656 9.84375 112.152344 C 9.640625 112.457031 9.46875 112.777344 9.328125 113.117188 C 9.1875 113.457031 9.082031 113.804688 9.011719 114.164062 C 8.9375 114.523438 8.902344 114.886719 8.902344 115.253906 L 8.902344 332.96875 C 8.902344 333.335938 8.9375 333.699219 9.011719 334.058594 C 9.082031 334.417969 9.1875 334.765625 9.328125 335.105469 C 9.46875 335.445312 9.640625 335.765625 9.84375 336.070312 C 10.046875 336.375 10.277344 336.65625 10.539062 336.917969 C 10.796875 337.175781 11.078125 337.40625 11.382812 337.609375 C 11.6875 337.816406 12.007812 337.988281 12.347656 338.125 C 12.6875 338.265625 13.035156 338.375 13.394531 338.445312 C 13.753906 338.515625 14.117188 338.550781 14.484375 338.550781 L 152.03125 338.550781 C 151.011719 339.746094 149.789062 340.667969 148.359375 341.320312 C 146.933594 341.972656 145.433594 342.289062 143.867188 342.273438 C 141.617188 342.265625 139.402344 342.527344 137.222656 343.070312 C 135.039062 343.609375 132.957031 344.410156 130.972656 345.472656 C 128.992188 346.53125 127.167969 347.820312 125.507812 349.335938 C 123.847656 350.851562 122.394531 352.546875 121.15625 354.421875 L 115.382812 363.457031 C 115.113281 363.878906 114.902344 364.328125 114.753906 364.804688 C 114.605469 365.285156 114.523438 365.773438 114.503906 366.273438 C 114.488281 366.773438 114.539062 367.269531 114.652344 367.757812 C 114.769531 368.242188 114.945312 368.707031 115.1875 369.144531 C 115.429688 369.585938 115.722656 369.984375 116.070312 370.34375 C 116.417969 370.707031 116.808594 371.011719 117.238281 371.269531 C 117.667969 371.523438 118.125 371.71875 118.609375 371.847656 C 119.09375 371.980469 119.585938 372.046875 120.085938 372.046875 L 254.824219 372.046875 C 255.324219 372.046875 255.816406 371.980469 256.300781 371.847656 C 256.785156 371.71875 257.242188 371.523438 257.671875 371.269531 C 258.101562 371.011719 258.492188 370.707031 258.839844 370.34375 C 259.1875 369.984375 259.480469 369.585938 259.722656 369.144531 C 259.964844 368.707031 260.140625 368.242188 260.257812 367.757812 C 260.375 367.269531 260.421875 366.773438 260.40625 366.273438 C 260.386719 365.773438 260.304688 365.285156 260.15625 364.804688 C 260.007812 364.328125 259.796875 363.878906 259.527344 363.457031 L 253.753906 354.429688 C 252.515625 352.550781 251.066406 350.855469 249.402344 349.339844 C 247.742188 347.824219 245.921875 346.535156 243.9375 345.472656 C 241.957031 344.410156 239.871094 343.609375 237.691406 343.070312 C 235.507812 342.527344 233.292969 342.265625 231.042969 342.273438 C 229.476562 342.289062 227.976562 341.972656 226.550781 341.320312 C 225.121094 340.667969 223.898438 339.746094 222.882812 338.550781 L 360.425781 338.550781 C 360.792969 338.550781 361.15625 338.515625 361.515625 338.445312 C 361.875 338.375 362.222656 338.265625 362.5625 338.125 C 362.902344 337.988281 363.222656 337.816406 363.527344 337.609375 C 363.832031 337.40625 364.113281 337.175781 364.371094 336.917969 C 364.632812 336.65625 364.863281 336.375 365.066406 336.070312 C 365.269531 335.765625 365.441406 335.445312 365.582031 335.105469 C 365.722656 334.765625 365.828125 334.417969 365.898438 334.058594 C 365.972656 333.699219 366.007812 333.335938 366.007812 332.96875 L 366.007812 115.253906 C 366.007812 114.886719 365.972656 114.523438 365.898438 114.164062 C 365.828125 113.804688 365.722656 113.457031 365.582031 113.117188 C 365.441406 112.777344 365.269531 112.457031 365.066406 112.152344 C 364.863281 111.847656 364.632812 111.566406 364.371094 111.304688 C 364.113281 111.046875 363.832031 110.816406 363.527344 110.613281 C 363.222656 110.410156 362.902344 110.238281 362.5625 110.097656 C 362.222656 109.957031 361.875 109.851562 361.515625 109.777344 C 361.15625 109.707031 360.792969 109.671875 360.425781 109.671875 Z M 231.042969 353.441406 C 232.359375 353.421875 233.652344 353.566406 234.933594 353.871094 C 236.210938 354.179688 237.429688 354.636719 238.59375 355.25 C 239.757812 355.859375 240.828125 356.605469 241.804688 357.484375 C 242.785156 358.363281 243.636719 359.347656 244.367188 360.441406 L 244.652344 360.882812 L 130.28125 360.882812 L 130.5625 360.433594 C 131.292969 359.34375 132.148438 358.359375 133.125 357.484375 C 134.097656 356.605469 135.167969 355.863281 136.328125 355.25 C 137.492188 354.640625 138.710938 354.183594 139.984375 353.875 C 141.261719 353.570312 142.554688 353.425781 143.867188 353.441406 C 145.003906 353.453125 146.132812 353.378906 147.257812 353.210938 C 148.382812 353.046875 149.488281 352.792969 150.574219 352.449219 C 151.65625 352.105469 152.707031 351.679688 153.722656 351.167969 C 154.742188 350.65625 155.710938 350.066406 156.632812 349.402344 C 157.554688 348.734375 158.417969 348 159.222656 347.195312 C 160.027344 346.394531 160.761719 345.53125 161.429688 344.609375 C 162.097656 343.6875 162.6875 342.71875 163.199219 341.703125 C 163.710938 340.6875 164.140625 339.636719 164.484375 338.550781 L 210.425781 338.550781 C 210.769531 339.636719 211.199219 340.6875 211.710938 341.703125 C 212.222656 342.71875 212.8125 343.6875 213.480469 344.609375 C 214.148438 345.53125 214.882812 346.394531 215.6875 347.195312 C 216.492188 348 217.355469 348.734375 218.277344 349.402344 C 219.199219 350.066406 220.167969 350.65625 221.1875 351.167969 C 222.203125 351.679688 223.253906 352.105469 224.335938 352.449219 C 225.421875 352.792969 226.527344 353.046875 227.652344 353.210938 C 228.777344 353.378906 229.90625 353.453125 231.042969 353.441406 Z M 215.199219 327.386719 L 20.0625 327.386719 L 20.0625 288.308594 L 354.847656 288.308594 L 354.847656 327.386719 Z M 215.199219 327.386719 " fill-opacity="1" fill-rule="nonzero"/></g><path fill="#000000" d="M 198.613281 293.890625 L 176.296875 293.890625 C 175.929688 293.890625 175.566406 293.929688 175.207031 294 C 174.847656 294.070312 174.5 294.175781 174.160156 294.316406 C 173.820312 294.457031 173.5 294.628906 173.195312 294.832031 C 172.890625 295.035156 172.609375 295.269531 172.351562 295.527344 C 172.089844 295.785156 171.859375 296.070312 171.65625 296.375 C 171.453125 296.679688 171.28125 297 171.140625 297.339844 C 171 297.675781 170.894531 298.027344 170.824219 298.386719 C 170.75 298.746094 170.714844 299.109375 170.714844 299.476562 L 170.714844 316.222656 C 170.714844 316.589844 170.75 316.953125 170.824219 317.3125 C 170.894531 317.671875 171 318.019531 171.140625 318.359375 C 171.28125 318.695312 171.453125 319.019531 171.65625 319.324219 C 171.859375 319.628906 172.089844 319.910156 172.351562 320.167969 C 172.609375 320.429688 172.890625 320.660156 173.195312 320.863281 C 173.5 321.066406 173.820312 321.238281 174.160156 321.378906 C 174.5 321.519531 174.847656 321.625 175.207031 321.695312 C 175.566406 321.769531 175.929688 321.804688 176.296875 321.804688 L 198.613281 321.804688 C 198.980469 321.804688 199.34375 321.769531 199.703125 321.695312 C 200.0625 321.625 200.410156 321.519531 200.75 321.378906 C 201.089844 321.238281 201.410156 321.066406 201.714844 320.863281 C 202.019531 320.660156 202.300781 320.429688 202.558594 320.167969 C 202.820312 319.910156 203.050781 319.628906 203.253906 319.324219 C 203.457031 319.019531 203.628906 318.695312 203.769531 318.359375 C 203.910156 318.019531 204.015625 317.671875 204.085938 317.3125 C 204.160156 316.953125 204.195312 316.589844 204.195312 316.222656 L 204.195312 299.476562 C 204.195312 299.109375 204.160156 298.746094 204.085938 298.386719 C 204.015625 298.027344 203.910156 297.675781 203.769531 297.339844 C 203.628906 297 203.457031 296.679688 203.253906 296.375 C 203.050781 296.070312 202.820312 295.785156 202.558594 295.527344 C 202.300781 295.269531 202.019531 295.035156 201.714844 294.832031 C 201.410156 294.628906 201.089844 294.457031 200.75 294.316406 C 200.410156 294.175781 200.0625 294.070312 199.703125 294 C 199.34375 293.929688 198.980469 293.890625 198.613281 293.890625 Z M 193.035156 310.640625 L 181.875 310.640625 L 181.875 305.058594 L 193.035156 305.058594 Z M 193.035156 310.640625 " fill-opacity="1" fill-rule="nonzero"/><path fill="#000000" d="M 76.539062 146.125 C 79.71875 147.484375 83.039062 148.152344 86.496094 148.128906 C 88.808594 148.125 91.085938 147.84375 93.332031 147.285156 C 105.882812 144.1875 114.027344 133.28125 111.480469 122.96875 C 111.027344 121.273438 110.3125 119.695312 109.339844 118.234375 L 109.339844 65.867188 L 159.554688 50.234375 L 159.554688 98.976562 C 157.265625 98.300781 154.925781 97.941406 152.539062 97.894531 C 150.152344 97.847656 147.800781 98.117188 145.484375 98.703125 C 132.929688 101.804688 124.789062 112.714844 127.332031 123.023438 C 127.695312 124.359375 128.207031 125.636719 128.867188 126.851562 C 129.523438 128.070312 130.3125 129.195312 131.234375 130.226562 C 132.152344 131.261719 133.179688 132.175781 134.3125 132.972656 C 135.441406 133.765625 136.652344 134.421875 137.933594 134.9375 C 141.113281 136.296875 144.433594 136.964844 147.890625 136.941406 C 150.203125 136.9375 152.480469 136.65625 154.722656 136.097656 C 167.277344 133 175.417969 122.09375 172.875 111.78125 C 172.414062 110.09375 171.695312 108.523438 170.714844 107.070312 L 170.714844 42.683594 C 170.714844 42.242188 170.664062 41.8125 170.566406 41.382812 C 170.464844 40.957031 170.3125 40.546875 170.117188 40.15625 C 169.917969 39.765625 169.675781 39.402344 169.394531 39.070312 C 169.109375 38.734375 168.792969 38.4375 168.441406 38.175781 C 168.085938 37.917969 167.707031 37.703125 167.304688 37.53125 C 166.898438 37.363281 166.480469 37.242188 166.050781 37.167969 C 165.617188 37.097656 165.183594 37.078125 164.746094 37.105469 C 164.308594 37.136719 163.878906 37.21875 163.460938 37.351562 L 102.085938 56.425781 C 101.519531 56.605469 100.992188 56.867188 100.511719 57.210938 C 100.027344 57.558594 99.609375 57.972656 99.257812 58.449219 C 98.90625 58.929688 98.640625 59.453125 98.453125 60.019531 C 98.269531 60.582031 98.179688 61.164062 98.179688 61.757812 L 98.179688 110.15625 C 95.886719 109.484375 93.546875 109.125 91.160156 109.078125 C 88.773438 109.03125 86.421875 109.304688 84.105469 109.890625 C 71.550781 112.992188 63.410156 123.902344 65.957031 134.210938 C 66.316406 135.546875 66.828125 136.820312 67.484375 138.039062 C 68.144531 139.253906 68.929688 140.378906 69.847656 141.414062 C 70.765625 142.445312 71.792969 143.359375 72.921875 144.15625 C 74.050781 144.953125 75.257812 145.609375 76.539062 146.125 Z M 152.035156 125.300781 C 150.4375 125.726562 148.8125 125.890625 147.160156 125.792969 C 145.511719 125.699219 143.914062 125.347656 142.375 124.742188 C 141.378906 124.375 140.515625 123.8125 139.773438 123.050781 C 139.035156 122.285156 138.5 121.402344 138.164062 120.394531 C 137.113281 116.128906 141.691406 111.183594 148.152344 109.582031 C 149.523438 109.246094 150.914062 109.078125 152.324219 109.074219 C 153.316406 108.941406 154.304688 108.972656 155.289062 109.160156 C 156.269531 109.347656 157.199219 109.6875 158.074219 110.175781 C 158.945312 110.664062 159.722656 111.277344 160.398438 112.015625 C 161.070312 112.753906 161.613281 113.582031 162.023438 114.496094 C 163.078125 118.738281 158.5 123.6875 152.035156 125.300781 Z M 86.75 120.742188 C 88.121094 120.40625 89.515625 120.234375 90.925781 120.234375 C 91.917969 120.101562 92.90625 120.128906 93.886719 120.320312 C 94.871094 120.507812 95.800781 120.84375 96.671875 121.332031 C 97.546875 121.820312 98.320312 122.4375 98.996094 123.175781 C 99.671875 123.914062 100.214844 124.738281 100.625 125.652344 C 101.675781 129.917969 97.101562 134.871094 90.636719 136.46875 C 89.035156 136.890625 87.414062 137.050781 85.761719 136.957031 C 84.109375 136.863281 82.515625 136.511719 80.976562 135.910156 C 79.980469 135.542969 79.113281 134.976562 78.375 134.214844 C 77.636719 133.453125 77.101562 132.566406 76.765625 131.558594 C 75.738281 127.273438 80.324219 122.328125 86.773438 120.726562 Z M 86.75 120.742188 " fill-opacity="1" fill-rule="nonzero"/><path fill="#000000" d="M 42.382812 165.496094 C 42.015625 165.496094 41.652344 165.53125 41.292969 165.601562 C 40.933594 165.675781 40.585938 165.78125 40.246094 165.921875 C 39.90625 166.0625 39.585938 166.234375 39.28125 166.4375 C 38.976562 166.640625 38.695312 166.871094 38.4375 167.132812 C 38.175781 167.390625 37.945312 167.671875 37.742188 167.976562 C 37.539062 168.28125 37.367188 168.601562 37.226562 168.941406 C 37.085938 169.28125 36.980469 169.628906 36.910156 169.988281 C 36.835938 170.347656 36.800781 170.710938 36.800781 171.078125 L 36.800781 182.242188 C 36.433594 182.242188 36.074219 182.277344 35.714844 182.351562 C 35.355469 182.421875 35.003906 182.527344 34.667969 182.667969 C 34.328125 182.808594 34.007812 182.980469 33.703125 183.183594 C 33.398438 183.386719 33.117188 183.617188 32.855469 183.878906 C 32.597656 184.136719 32.367188 184.417969 32.164062 184.722656 C 31.957031 185.027344 31.785156 185.351562 31.648438 185.6875 C 31.507812 186.027344 31.402344 186.378906 31.328125 186.738281 C 31.257812 187.097656 31.222656 187.460938 31.222656 187.824219 L 31.222656 210.15625 C 31.222656 210.523438 31.257812 210.886719 31.328125 211.246094 C 31.402344 211.605469 31.507812 211.953125 31.648438 212.292969 C 31.785156 212.628906 31.957031 212.953125 32.164062 213.257812 C 32.367188 213.5625 32.597656 213.84375 32.855469 214.101562 C 33.117188 214.363281 33.398438 214.59375 33.703125 214.796875 C 34.007812 215 34.328125 215.171875 34.667969 215.3125 C 35.003906 215.453125 35.355469 215.558594 35.714844 215.628906 C 36.074219 215.703125 36.433594 215.738281 36.800781 215.738281 L 36.800781 260.398438 C 36.800781 260.765625 36.835938 261.128906 36.910156 261.488281 C 36.980469 261.847656 37.085938 262.195312 37.226562 262.535156 C 37.367188 262.871094 37.539062 263.195312 37.742188 263.5 C 37.945312 263.804688 38.175781 264.085938 38.4375 264.34375 C 38.695312 264.605469 38.976562 264.835938 39.28125 265.039062 C 39.585938 265.242188 39.90625 265.414062 40.246094 265.554688 C 40.585938 265.695312 40.933594 265.800781 41.292969 265.871094 C 41.652344 265.945312 42.015625 265.980469 42.382812 265.980469 L 59.121094 265.980469 C 59.488281 265.980469 59.851562 265.945312 60.210938 265.871094 C 60.570312 265.800781 60.917969 265.695312 61.257812 265.554688 C 61.59375 265.414062 61.917969 265.242188 62.222656 265.039062 C 62.527344 264.835938 62.808594 264.605469 63.066406 264.34375 C 63.324219 264.085938 63.558594 263.804688 63.761719 263.5 C 63.964844 263.195312 64.136719 262.871094 64.277344 262.535156 C 64.417969 262.195312 64.523438 261.847656 64.59375 261.488281 C 64.664062 261.128906 64.699219 260.765625 64.699219 260.398438 L 64.699219 215.738281 C 65.066406 215.738281 65.429688 215.703125 65.789062 215.628906 C 66.148438 215.558594 66.496094 215.453125 66.835938 215.3125 C 67.175781 215.171875 67.496094 215 67.800781 214.796875 C 68.105469 214.59375 68.386719 214.363281 68.644531 214.101562 C 68.90625 213.84375 69.136719 213.5625 69.339844 213.257812 C 69.542969 212.953125 69.714844 212.628906 69.855469 212.292969 C 69.996094 211.953125 70.101562 211.605469 70.171875 211.246094 C 70.246094 210.886719 70.28125 210.523438 70.28125 210.15625 L 70.28125 187.824219 C 70.28125 187.460938 70.246094 187.097656 70.171875 186.738281 C 70.101562 186.378906 69.996094 186.027344 69.855469 185.6875 C 69.714844 185.351562 69.542969 185.027344 69.339844 184.722656 C 69.136719 184.417969 68.90625 184.136719 68.644531 183.878906 C 68.386719 183.617188 68.105469 183.386719 67.800781 183.183594 C 67.496094 182.980469 67.175781 182.808594 66.835938 182.667969 C 66.496094 182.527344 66.148438 182.421875 65.789062 182.351562 C 65.429688 182.277344 65.066406 182.242188 64.699219 182.242188 L 64.699219 171.078125 C 64.699219 170.710938 64.664062 170.347656 64.59375 169.988281 C 64.523438 169.628906 64.417969 169.28125 64.277344 168.941406 C 64.136719 168.601562 63.964844 168.28125 63.761719 167.976562 C 63.558594 167.671875 63.324219 167.390625 63.066406 167.132812 C 62.808594 166.871094 62.527344 166.640625 62.222656 166.4375 C 61.917969 166.234375 61.59375 166.0625 61.257812 165.921875 C 60.917969 165.78125 60.570312 165.675781 60.210938 165.601562 C 59.851562 165.53125 59.488281 165.496094 59.121094 165.496094 Z M 59.121094 193.40625 L 59.121094 204.574219 L 42.382812 204.574219 L 42.382812 193.40625 Z M 53.542969 254.816406 L 47.960938 254.816406 L 47.960938 215.738281 L 53.542969 215.738281 Z M 47.960938 182.242188 L 47.960938 176.660156 L 53.542969 176.660156 L 53.542969 182.242188 Z M 47.960938 182.242188 " fill-opacity="1" fill-rule="nonzero"/><path fill="#000000" d="M 87.019531 265.980469 L 103.757812 265.980469 C 104.125 265.980469 104.488281 265.945312 104.847656 265.871094 C 105.207031 265.800781 105.554688 265.695312 105.894531 265.554688 C 106.234375 265.414062 106.554688 265.242188 106.859375 265.039062 C 107.164062 264.835938 107.445312 264.605469 107.703125 264.34375 C 107.964844 264.085938 108.195312 263.804688 108.398438 263.5 C 108.601562 263.195312 108.773438 262.871094 108.914062 262.535156 C 109.054688 262.195312 109.160156 261.847656 109.230469 261.488281 C 109.304688 261.128906 109.339844 260.765625 109.339844 260.398438 L 109.339844 243.648438 C 109.703125 243.648438 110.066406 243.613281 110.425781 243.542969 C 110.785156 243.472656 111.136719 243.367188 111.472656 243.226562 C 111.8125 243.085938 112.132812 242.914062 112.4375 242.710938 C 112.742188 242.503906 113.023438 242.273438 113.285156 242.015625 C 113.542969 241.757812 113.773438 241.472656 113.976562 241.167969 C 114.179688 240.863281 114.351562 240.542969 114.492188 240.203125 C 114.632812 239.867188 114.738281 239.515625 114.8125 239.15625 C 114.882812 238.796875 114.917969 238.433594 114.917969 238.066406 L 114.917969 215.738281 C 114.917969 215.371094 114.882812 215.007812 114.8125 214.648438 C 114.738281 214.289062 114.632812 213.941406 114.492188 213.601562 C 114.351562 213.261719 114.179688 212.941406 113.976562 212.636719 C 113.773438 212.332031 113.542969 212.050781 113.285156 211.789062 C 113.023438 211.53125 112.742188 211.300781 112.4375 211.097656 C 112.132812 210.894531 111.8125 210.71875 111.472656 210.582031 C 111.136719 210.441406 110.785156 210.335938 110.425781 210.261719 C 110.066406 210.191406 109.703125 210.15625 109.339844 210.15625 L 109.339844 171.078125 C 109.339844 170.710938 109.304688 170.347656 109.230469 169.988281 C 109.160156 169.628906 109.054688 169.28125 108.914062 168.941406 C 108.773438 168.601562 108.601562 168.28125 108.398438 167.976562 C 108.195312 167.671875 107.964844 167.390625 107.703125 167.132812 C 107.445312 166.871094 107.164062 166.640625 106.859375 166.4375 C 106.554688 166.234375 106.234375 166.0625 105.894531 165.921875 C 105.554688 165.78125 105.207031 165.675781 104.847656 165.601562 C 104.488281 165.53125 104.125 165.496094 103.757812 165.496094 L 87.019531 165.496094 C 86.652344 165.496094 86.289062 165.53125 85.929688 165.601562 C 85.570312 165.675781 85.222656 165.78125 84.882812 165.921875 C 84.546875 166.0625 84.222656 166.234375 83.917969 166.4375 C 83.613281 166.640625 83.332031 166.871094 83.074219 167.132812 C 82.816406 167.390625 82.582031 167.671875 82.378906 167.976562 C 82.175781 168.28125 82.003906 168.601562 81.863281 168.941406 C 81.722656 169.28125 81.617188 169.628906 81.546875 169.988281 C 81.476562 170.347656 81.441406 170.710938 81.441406 171.078125 L 81.441406 210.15625 C 81.074219 210.15625 80.710938 210.191406 80.351562 210.261719 C 79.992188 210.335938 79.644531 210.441406 79.304688 210.582031 C 78.964844 210.71875 78.644531 210.894531 78.339844 211.097656 C 78.035156 211.300781 77.753906 211.53125 77.496094 211.789062 C 77.234375 212.050781 77.003906 212.332031 76.800781 212.636719 C 76.597656 212.941406 76.425781 213.261719 76.285156 213.601562 C 76.144531 213.941406 76.039062 214.289062 75.96875 214.648438 C 75.894531 215.007812 75.859375 215.371094 75.859375 215.738281 L 75.859375 238.066406 C 75.859375 238.433594 75.894531 238.796875 75.96875 239.15625 C 76.039062 239.515625 76.144531 239.867188 76.285156 240.203125 C 76.425781 240.542969 76.597656 240.863281 76.800781 241.167969 C 77.003906 241.472656 77.234375 241.757812 77.496094 242.015625 C 77.753906 242.273438 78.035156 242.503906 78.339844 242.710938 C 78.644531 242.914062 78.964844 243.085938 79.304688 243.226562 C 79.644531 243.367188 79.992188 243.472656 80.351562 243.542969 C 80.710938 243.613281 81.074219 243.648438 81.441406 243.648438 L 81.441406 260.398438 C 81.441406 260.765625 81.476562 261.128906 81.546875 261.488281 C 81.617188 261.847656 81.722656 262.195312 81.863281 262.535156 C 82.003906 262.871094 82.175781 263.195312 82.378906 263.5 C 82.582031 263.804688 82.816406 264.085938 83.074219 264.34375 C 83.332031 264.605469 83.613281 264.835938 83.917969 265.039062 C 84.222656 265.242188 84.546875 265.414062 84.882812 265.554688 C 85.222656 265.695312 85.570312 265.800781 85.929688 265.871094 C 86.289062 265.945312 86.652344 265.980469 87.019531 265.980469 Z M 87.019531 232.484375 L 87.019531 221.320312 L 103.757812 221.320312 L 103.757812 232.484375 Z M 92.597656 176.660156 L 98.179688 176.660156 L 98.179688 210.15625 L 92.597656 210.15625 Z M 98.179688 243.648438 L 98.179688 254.816406 L 92.597656 254.816406 L 92.597656 243.648438 Z M 98.179688 243.648438 " fill-opacity="1" fill-rule="nonzero"/><path fill="#000000" d="M 159.160156 180.171875 C 158.945312 179.644531 158.65625 179.160156 158.292969 178.71875 C 157.929688 178.277344 157.511719 177.898438 157.03125 177.585938 C 156.554688 177.273438 156.042969 177.035156 155.492188 176.878906 C 154.945312 176.722656 154.386719 176.648438 153.816406 176.660156 C 153.242188 176.679688 152.6875 176.78125 152.148438 176.96875 C 151.609375 177.15625 151.109375 177.421875 150.648438 177.761719 C 150.191406 178.105469 149.796875 178.507812 149.460938 178.96875 C 149.125 179.433594 148.867188 179.9375 148.6875 180.480469 L 137.527344 213.972656 L 148.128906 217.503906 L 154.472656 198.464844 L 159.976562 212.226562 C 160.175781 212.726562 160.441406 213.1875 160.773438 213.609375 C 161.105469 214.03125 161.492188 214.398438 161.933594 214.710938 C 162.371094 215.023438 162.84375 215.265625 163.355469 215.4375 C 163.863281 215.613281 164.386719 215.710938 164.925781 215.730469 C 165.464844 215.769531 166 215.726562 166.527344 215.601562 C 167.054688 215.476562 167.550781 215.277344 168.015625 215.003906 C 168.484375 214.730469 168.898438 214.390625 169.261719 213.988281 C 169.625 213.589844 169.921875 213.140625 170.152344 212.652344 L 191.820312 169.292969 L 210.042969 228.542969 C 210.210938 229.097656 210.464844 229.617188 210.796875 230.09375 C 211.125 230.570312 211.523438 230.984375 211.984375 231.339844 C 212.445312 231.691406 212.949219 231.964844 213.496094 232.160156 C 214.042969 232.359375 214.605469 232.464844 215.1875 232.484375 L 215.355469 232.484375 C 215.921875 232.484375 216.476562 232.402344 217.019531 232.234375 C 217.5625 232.0625 218.066406 231.816406 218.535156 231.496094 C 219 231.171875 219.410156 230.785156 219.757812 230.335938 C 220.109375 229.890625 220.382812 229.398438 220.582031 228.867188 L 231.78125 198.992188 L 237.964844 217.523438 C 238.140625 218.058594 238.394531 218.554688 238.722656 219.011719 C 239.046875 219.46875 239.4375 219.867188 239.882812 220.207031 C 240.332031 220.546875 240.820312 220.816406 241.347656 221.007812 C 241.878906 221.199219 242.421875 221.308594 242.984375 221.335938 C 243.546875 221.371094 244.101562 221.316406 244.648438 221.179688 C 245.195312 221.039062 245.710938 220.824219 246.191406 220.527344 C 246.667969 220.230469 247.09375 219.871094 247.464844 219.445312 C 247.832031 219.015625 248.128906 218.542969 248.351562 218.027344 L 265.476562 179.453125 L 277.195312 206.773438 C 277.425781 207.308594 277.730469 207.796875 278.117188 208.238281 C 278.5 208.679688 278.941406 209.050781 279.441406 209.351562 C 279.941406 209.652344 280.476562 209.871094 281.042969 210.003906 C 281.613281 210.136719 282.1875 210.179688 282.769531 210.132812 C 283.351562 210.085938 283.910156 209.953125 284.453125 209.730469 C 284.992188 209.507812 285.484375 209.207031 285.929688 208.828125 C 286.375 208.449219 286.75 208.015625 287.058594 207.519531 C 287.367188 207.023438 287.59375 206.492188 287.734375 205.925781 L 299.417969 159.160156 L 316.011719 217.265625 C 316.160156 217.789062 316.382812 218.28125 316.675781 218.742188 C 316.96875 219.199219 317.320312 219.605469 317.734375 219.960938 C 318.144531 220.316406 318.597656 220.605469 319.09375 220.828125 C 319.59375 221.050781 320.109375 221.199219 320.648438 221.269531 C 321.1875 221.347656 321.726562 221.34375 322.265625 221.261719 C 322.804688 221.175781 323.320312 221.019531 323.808594 220.78125 C 324.300781 220.542969 324.746094 220.242188 325.148438 219.871094 C 325.546875 219.503906 325.886719 219.082031 326.164062 218.613281 L 342.902344 190.699219 L 333.335938 184.949219 L 323.210938 201.832031 L 304.417969 136.054688 C 304.226562 135.476562 303.949219 134.941406 303.59375 134.449219 C 303.238281 133.957031 302.8125 133.527344 302.324219 133.164062 C 301.835938 132.804688 301.304688 132.523438 300.730469 132.324219 C 300.15625 132.125 299.5625 132.015625 298.957031 132 C 298.339844 132.011719 297.746094 132.121094 297.167969 132.328125 C 296.589844 132.535156 296.058594 132.832031 295.578125 133.214844 C 295.097656 133.597656 294.691406 134.046875 294.359375 134.5625 C 294.027344 135.078125 293.785156 135.636719 293.636719 136.234375 L 280.917969 187.144531 L 270.699219 163.296875 C 270.484375 162.796875 270.207031 162.339844 269.859375 161.921875 C 269.511719 161.503906 269.109375 161.148438 268.660156 160.847656 C 268.207031 160.546875 267.722656 160.316406 267.203125 160.15625 C 266.683594 160 266.152344 159.917969 265.609375 159.914062 L 265.570312 159.914062 C 265.03125 159.914062 264.503906 159.988281 263.984375 160.144531 C 263.46875 160.296875 262.984375 160.519531 262.53125 160.816406 C 262.078125 161.109375 261.675781 161.460938 261.324219 161.871094 C 260.976562 162.285156 260.691406 162.734375 260.472656 163.230469 L 244 200.3125 L 237.382812 180.480469 C 237.199219 179.933594 236.941406 179.425781 236.601562 178.960938 C 236.261719 178.492188 235.859375 178.089844 235.398438 177.746094 C 234.933594 177.40625 234.429688 177.140625 233.882812 176.957031 C 233.335938 176.769531 232.777344 176.671875 232.199219 176.660156 C 231.625 176.664062 231.066406 176.753906 230.519531 176.921875 C 229.96875 177.09375 229.460938 177.339844 228.984375 177.660156 C 228.511719 177.984375 228.09375 178.367188 227.730469 178.8125 C 227.371094 179.257812 227.082031 179.746094 226.863281 180.277344 L 215.878906 209.597656 L 198.371094 152.65625 C 198.203125 152.125 197.964844 151.628906 197.652344 151.167969 C 197.335938 150.707031 196.964844 150.304688 196.527344 149.957031 C 196.09375 149.605469 195.617188 149.332031 195.101562 149.125 C 194.582031 148.917969 194.046875 148.792969 193.492188 148.75 C 192.9375 148.710938 192.390625 148.753906 191.847656 148.878906 C 191.308594 149 190.792969 149.199219 190.308594 149.472656 C 189.824219 149.746094 189.390625 150.082031 189.003906 150.480469 C 188.617188 150.878906 188.296875 151.324219 188.042969 151.820312 L 165.722656 196.523438 Z M 159.160156 180.171875 " fill-opacity="1" fill-rule="nonzero"/><path fill="#000000" d="M 255.894531 96.777344 C 253.804688 97.925781 251.898438 99.332031 250.179688 100.988281 C 248.457031 102.648438 246.984375 104.5 245.757812 106.550781 C 239.0625 117.625 241.039062 131.113281 250.121094 136.589844 C 252.753906 138.164062 255.601562 138.9375 258.667969 138.917969 C 260.730469 138.8125 262.746094 138.453125 264.71875 137.835938 C 266.6875 137.222656 268.550781 136.367188 270.300781 135.28125 C 272.054688 134.191406 273.644531 132.898438 275.070312 131.40625 C 276.5 129.914062 277.714844 128.265625 278.722656 126.464844 C 280.242188 124.015625 281.335938 121.390625 282 118.585938 C 282.660156 115.78125 282.859375 112.941406 282.59375 110.074219 C 282.480469 108.695312 282.214844 107.351562 281.789062 106.035156 C 281.363281 104.71875 280.792969 103.472656 280.082031 102.289062 C 279.367188 101.105469 278.527344 100.019531 277.5625 99.03125 C 276.597656 98.042969 275.53125 97.175781 274.367188 96.433594 C 272.835938 95.554688 271.207031 94.941406 269.476562 94.597656 L 220.292969 45.355469 C 231.351562 36.339844 262.261719 16.328125 291.070312 45.121094 L 298.960938 37.222656 C 264.632812 2.878906 224.582031 24.816406 208.21875 41.167969 C 207.957031 41.429688 207.726562 41.710938 207.523438 42.015625 C 207.320312 42.320312 207.148438 42.640625 207.007812 42.980469 C 206.867188 43.320312 206.761719 43.667969 206.6875 44.027344 C 206.617188 44.386719 206.582031 44.75 206.582031 45.117188 C 206.582031 45.484375 206.617188 45.847656 206.6875 46.207031 C 206.761719 46.566406 206.867188 46.917969 207.007812 47.257812 C 207.148438 47.59375 207.320312 47.917969 207.523438 48.222656 C 207.726562 48.527344 207.957031 48.808594 208.21875 49.066406 Z M 269.175781 120.691406 C 265.726562 126.394531 259.691406 129.316406 255.890625 127.027344 C 252.089844 124.738281 251.875 118.027344 255.332031 112.324219 C 256.160156 110.890625 257.191406 109.625 258.425781 108.523438 C 259.660156 107.425781 261.035156 106.546875 262.554688 105.886719 C 263.578125 105.472656 264.640625 105.253906 265.746094 105.234375 C 266.769531 105.214844 267.722656 105.464844 268.605469 105.988281 C 269.46875 106.605469 270.15625 107.378906 270.664062 108.308594 C 271.175781 109.242188 271.457031 110.234375 271.507812 111.296875 C 271.636719 112.945312 271.5 114.574219 271.101562 116.183594 C 270.699219 117.789062 270.058594 119.292969 269.175781 120.691406 Z M 269.175781 120.691406 " fill-opacity="1" fill-rule="nonzero"/><path fill="#000000" d="M 131.65625 238.066406 C 131.292969 238.066406 130.929688 238.101562 130.570312 238.175781 C 130.210938 238.246094 129.859375 238.351562 129.523438 238.492188 C 129.183594 238.632812 128.863281 238.804688 128.558594 239.007812 C 128.253906 239.210938 127.972656 239.445312 127.710938 239.703125 C 127.453125 239.960938 127.222656 240.242188 127.019531 240.546875 C 126.816406 240.855469 126.644531 241.175781 126.503906 241.515625 C 126.363281 241.851562 126.257812 242.203125 126.183594 242.5625 C 126.113281 242.921875 126.078125 243.285156 126.078125 243.648438 L 126.078125 260.398438 C 126.078125 260.765625 126.113281 261.128906 126.183594 261.488281 C 126.257812 261.847656 126.363281 262.195312 126.503906 262.535156 C 126.644531 262.871094 126.816406 263.195312 127.019531 263.5 C 127.222656 263.804688 127.453125 264.085938 127.710938 264.34375 C 127.972656 264.605469 128.253906 264.835938 128.558594 265.039062 C 128.863281 265.242188 129.183594 265.414062 129.523438 265.554688 C 129.859375 265.695312 130.210938 265.800781 130.570312 265.871094 C 130.929688 265.945312 131.292969 265.980469 131.65625 265.980469 L 338.109375 265.980469 C 338.476562 265.980469 338.835938 265.945312 339.195312 265.871094 C 339.554688 265.800781 339.90625 265.695312 340.242188 265.554688 C 340.582031 265.414062 340.902344 265.242188 341.207031 265.039062 C 341.511719 264.835938 341.792969 264.605469 342.054688 264.34375 C 342.3125 264.085938 342.542969 263.804688 342.746094 263.5 C 342.953125 263.195312 343.125 262.871094 343.261719 262.535156 C 343.402344 262.195312 343.507812 261.847656 343.582031 261.488281 C 343.652344 261.128906 343.6875 260.765625 343.6875 260.398438 L 343.6875 243.648438 C 343.6875 243.285156 343.652344 242.921875 343.582031 242.5625 C 343.507812 242.203125 343.402344 241.851562 343.261719 241.515625 C 343.125 241.175781 342.953125 240.855469 342.746094 240.546875 C 342.542969 240.242188 342.3125 239.960938 342.054688 239.703125 C 341.792969 239.445312 341.511719 239.210938 341.207031 239.007812 C 340.902344 238.804688 340.582031 238.632812 340.242188 238.492188 C 339.90625 238.351562 339.554688 238.246094 339.195312 238.175781 C 338.835938 238.101562 338.476562 238.066406 338.109375 238.066406 Z M 332.527344 254.816406 L 137.238281 254.816406 L 137.238281 249.234375 L 332.527344 249.234375 Z M 332.527344 254.816406 " fill-opacity="1" fill-rule="nonzero"/></svg>